# xmcd
#
# Track frame offsets:
#	150
#	20404
#	36196
#	54073
#	79001
#	104303
#	134292
#	150738
#	159931
#
# Disc length: 2495 seconds
#
# Revision: 1
# Processed by: cddbd v1.4PL0 Copyright (c) Steve Scherf et al.
# Submitted via: CDmax 2.0
#
DISCID=5e09bd09
DTITLE=Just Got Lucky - All Over Town
DYEAR=2003
DGENRE=Blues
TTITLE0=All Over Town
TTITLE1=Blues Train
TTITLE2=I Gotta Know
TTITLE3=Lead Me To your Love
TTITLE4=Just Got Lucky
TTITLE5=Satisfied Man
TTITLE6=Don't 'cha Know
TTITLE7=Song For Lisa
TTITLE8=Not Gonna Take It
EXTD=
EXTT0=
EXTT1=
EXTT2=
EXTT3=
EXTT4=
EXTT5=
EXTT6=
EXTT7=
EXTT8=
PLAYORDER=
